# xmcd CD database file
#
# Track frame offsets:
#	150
#	19725
#	34125
#	47482
#	59392
#	72450
#	83747
#	97308
#	117797
#	134187
#	147800
#	157630
#	172367
#	185462
#	199412
#
# Disc length: 3036 seconds
#
# Revision: 0
# Processed by: cddbd v1.5.2PL0 Copyright (c) Steve Scherf et al.
# Submitted via: CDex 1.51
#
DISCID=dd0bda0f
DTITLE=Cash For Junkers - Genuine Junk
DYEAR=2001
DGENRE=Country
TTITLE0=Judgement Day
TTITLE1=Blind Love
TTITLE2=Hot Rod Boogie
TTITLE3=Night Train To Memphis
TTITLE4=Happy Hour
TTITLE5=Miss Molly
TTITLE6=Cheater's Waltz
TTITLE7=Murder Ballad
TTITLE8=Murder In The Red Barn
TTITLE9=Can't Be Satisfied
TTITLE10=Yearnin' Heart
TTITLE11=Must Come In At The Door
TTITLE12=30 Days
TTITLE13=Stardust Motel
TTITLE14=Jitterbug Swing
EXTD=YEAR: 2001
EXTT0=
EXTT1=
EXTT2=
EXTT3=
EXTT4=
EXTT5=
EXTT6=
EXTT7=
EXTT8=
EXTT9=
EXTT10=
EXTT11=
EXTT12=
EXTT13=
EXTT14=
PLAYORDER=
